<svg xmlns="http://www.w3.org/2000/svg" width="315" height="81">
         <defs>
            <style type="text/css">
    @namespace "http://www.w3.org/2000/svg";
    .line                 {fill: none; stroke: #332900; stroke-width: 1;}
    .bold-line            {stroke: #141000; shape-rendering: crispEdges; stroke-width: 2;}
    .thin-line            {stroke: #1F1800; shape-rendering: crispEdges}
    .filled               {fill: #332900; stroke: none;}
    text.terminal         {font-family: Verdana, Sans-serif;
                            font-size: 12px;
                            fill: #141000;
                            font-weight: bold;
                          }
    text.nonterminal      {font-family: Verdana, Sans-serif;
                            font-size: 12px;
                            fill: #1A1400;
                            font-weight: normal;
                          }
    text.regexp           {font-family: Verdana, Sans-serif;
                            font-size: 12px;
                            fill: #1F1800;
                            font-weight: normal;
                          }
    rect, circle, polygon {fill: #332900; stroke: #332900;}
    rect.terminal         {fill: #FFDB4D; stroke: #332900; stroke-width: 1;}
    rect.nonterminal      {fill: #FFEC9E; stroke: #332900; stroke-width: 1;}
    rect.text             {fill: none; stroke: none;}
    polygon.regexp        {fill: #FFF4C7; stroke: #332900; stroke-width: 1;}
  </style>
         </defs>
         <polygon points="9 17 1 13 1 21"/>
         <polygon points="17 17 9 13 9 21"/><a xmlns:xlink="http://www.w3.org/1999/xlink" xlink:href="#NCName" xlink:title="NCName">
            <rect x="31" y="3" width="74" height="32"/>
            <rect x="29" y="1" width="74" height="32" class="nonterminal"/>
            <text class="nonterminal" x="39" y="21">NCName</text></a><rect x="125" y="3" width="40" height="32" rx="10"/>
         <rect x="123" y="1" width="40" height="32" class="terminal" rx="10"/>
         <text class="terminal" x="133" y="21">::=</text><a xmlns:xlink="http://www.w3.org/1999/xlink" xlink:href="#Choice" xlink:title="Choice">
            <rect x="205" y="3" width="62" height="32"/>
            <rect x="203" y="1" width="62" height="32" class="nonterminal"/>
            <text class="nonterminal" x="213" y="21">Choice</text></a><a xmlns:xlink="http://www.w3.org/1999/xlink" xlink:href="#Link" xlink:title="Link">
            <rect x="205" y="47" width="44" height="32"/>
            <rect x="203" y="45" width="44" height="32" class="nonterminal"/>
            <text class="nonterminal" x="213" y="65">Link</text></a><path xmlns:svg="http://www.w3.org/2000/svg" class="line" d="m17 17 h2 m0 0 h10 m74 0 h10 m0 0 h10 m40 0 h10 m20 0 h10 m62 0 h10 m-102 0 h20 m82 0 h20 m-122 0 q10 0 10 10 m102 0 q0 -10 10 -10 m-112 10 v24 m102 0 v-24 m-102 24 q0 10 10 10 m82 0 q10 0 10 -10 m-92 10 h10 m44 0 h10 m0 0 h18 m23 -44 h-3"/>
         <polygon points="305 17 313 13 313 21"/>
         <polygon points="305 17 297 13 297 21"/></svg>